# xmcd
#
# Track frame offsets: 
#        150
#        14592
#        43494
#        94646
#        132293
#        179246
#
# Disc length: 3171 seconds
#
# Revision: 0
# Processed by: cddbd v1.5.2PL0 Copyright (c) Steve Scherf et al.
# Submitted via: ExactAudioCopy v0.95b3
#
DISCID=560c6106
DTITLE=Led Zeppelin  - Lost BBC Sessions - 1969-06-27 London UK  FLAC
DYEAR=1900
DGENRE=
TTITLE0=Communication Breakdown
TTITLE1=I Can't Quit You Baby
TTITLE2=Dazed and Confused
TTITLE3=White Summer
TTITLE4=You Shook Me
TTITLE5=How Many More Times
EXTD=
EXTT0=
EXTT1=
EXTT2=
EXTT3=
EXTT4=
EXTT5=
PLAYORDER=
